<svg width="23" height="23" viewBox="0 0 23 23" fill="none" xmlns="http://www.w3.org/2000/svg">
<path d="M13.5709 10.618H10.7429V13.516H9.25893V10.618H6.43093V9.274H9.25893V6.376H10.7429V9.274H13.5709V10.618Z" fill="white"/>
<path d="M9.66667 19.3333C11.8973 19.3333 13.9478 18.566 15.5839 17.2937L20.8957 22.6055L22.6043 20.8969L17.2925 15.5851C18.566 13.9478 19.3333 11.8972 19.3333 9.66667C19.3333 4.33671 14.9966 0 9.66667 0C4.33671 0 0 4.33671 0 9.66667C0 14.9966 4.33671 19.3333 9.66667 19.3333ZM9.66667 2.41667C13.665 2.41667 16.9167 5.66829 16.9167 9.66667C16.9167 13.665 13.665 16.9167 9.66667 16.9167C5.66829 16.9167 2.41667 13.665 2.41667 9.66667C2.41667 5.66829 5.66829 2.41667 9.66667 2.41667Z" fill="white"/>
</svg>
